#define xbas_width 81
#define xbas_height 51
static char xbas_bits[] = {
    0x00,  0x00,  0x00,  0x00,  0x00,  0x00,  0x00,  0x00,  0x00,  0x00,  0x00,  0x00,
    0x00,  0x00,  0x00,  0x00,  0x00,  0x00,  0x00,  0x00,  0x00,  0x00,  0x00,  0x00,
    0x00,  0x00,  0x00,  0x00,  0x00,  0x00,  0x00,  0x00,  0x00,  0x00,  0x00,  0x00,
    0x00,  0x00,  0x00,  0x00,  0x00,  0x00,  0x00,  0x00,  0x00,  0x00,  0x00,  0x00,
    0x00,  0x00,  0x00,  0x00,  0x00,  0x00,  0x00,  0x00,  0x00,  0x00,  0x00,  0x00,
    0x00,  0x00,  0x00,  0x00,  0x00,  0x00,  0x00,  0x00,  0x00,  0x00,  0x00,  0x00,
    0x00,  0x00,  0x00,  0x00,  0x00,  0x00,  0x00,  0x00,  0x00,  0x00,  0x00,  0x00,
    0x00,  0x00,  0x00,  0x00,  0x00,  0x00,  0x00,  0x00,  0x00,  0x00,  0x00,  0x00,
    0x00,  0x00,  0x00,  0x00,  0x00,  0x00,  0x00,  0x00,  0x00,  0x00,  0x00,  0x00,
    0x00,  0x00,  0x00,  0x00,  0x00,  0x00,  0x00,  0x00,  0x00,  0x00,  0x00,  0x00,
    0x00,  0x00,  0x0e,  0xfe,  0x83,  0x03,  0x00,  0x00,  0x00,  0x00,  0x00,  0x00,
    0x00,  0x1c,  0xf8,  0xc0,  0x01,  0x00,  0x00,  0x00,  0x00,  0x00,  0x00,  0x00,
    0x38,  0x70,  0xe0,  0x00,  0x00,  0x00,  0x00,  0x00,  0x00,  0x00,  0x00,  0x38,
    0x70,  0xe0,  0x00,  0x00,  0x00,  0x00,  0x00,  0x00,  0x00,  0x00,  0x78,  0x70,
    0xf0,  0x00,  0x00,  0x00,  0x00,  0x00,  0x00,  0x00,  0x00,  0x78,  0x70,  0xf0,
    0x00,  0x00,  0x00,  0x00,  0x00,  0x00,  0x00,  0x00,  0x78,  0x70,  0xf0,  0x00,
    0x00,  0x00,  0x00,  0x00,  0x00,  0x00,  0x00,  0x78,  0x70,  0xf0,  0x00,  0x00,
    0x00,  0x00,  0x00,  0x00,  0x00,  0x00,  0x78,  0x70,  0xf0,  0x00,  0x00,  0x00,
    0x00,  0x00,  0x00,  0x00,  0x00,  0x70,  0x70,  0x70,  0x00,  0x00,  0x00,  0x00,
    0x00,  0x00,  0x00,  0x00,  0xf0,  0x70,  0x78,  0x78,  0x00,  0x00,  0x03,  0x00,
    0x00,  0x00,  0x00,  0xe0,  0x73,  0x3e,  0x30,  0x00,  0x80,  0x03,  0x00,  0x00,
    0x00,  0x00,  0x80,  0xff,  0x0f,  0x30,  0x00,  0x00,  0x03,  0x00,  0x00,  0x00,
    0x00,  0x00,  0x70,  0x00,  0x30,  0x00,  0x00,  0x03,  0x00,  0x00,  0x00,  0x00,
    0x00,  0x70,  0x00,  0x30,  0x00,  0x0f,  0x3b,  0x00,  0x00,  0x00,  0x00,  0x00,
    0x70,  0x00,  0x30,  0x80,  0x09,  0x77,  0x00,  0x00,  0x00,  0x00,  0x00,  0x70,
    0x00,  0x30,  0x80,  0x19,  0x63,  0x00,  0x00,  0x00,  0x00,  0x00,  0x70,  0x00,
    0x30,  0x00,  0x1c,  0x63,  0x00,  0x00,  0x00,  0x00,  0x00,  0x70,  0x00,  0x30,
    0x00,  0x1b,  0x63,  0x00,  0x00,  0x00,  0x00,  0x00,  0x70,  0x00,  0x30,  0x80,
    0x19,  0x63,  0x00,  0x00,  0x00,  0x00,  0x00,  0x70,  0x00,  0x30,  0x90,  0x19,
    0x63,  0x00,  0x00,  0x00,  0x00,  0x00,  0xf8,  0x00,  0x30,  0x98,  0x1f,  0x33,
    0x00,  0x00,  0x00,  0x00,  0x00,  0xfe,  0x03,  0xf8,  0x1f,  0x33,  0x1d,  0x00,
    0x00,  0x00,  0x00,  0x00,  0x00,  0x00,  0x00,  0x00,  0x00,  0x00,  0x00,  0x00,
    0x00,  0x00,  0x00,  0x00,  0x00,  0x00,  0x00,  0x00,  0x00,  0x00,  0x00,  0x00,
    0x00,  0x00,  0x00,  0x00,  0x00,  0x00,  0x00,  0x00,  0x00,  0x00,  0x00,  0x00,
    0x00,  0x00,  0x00,  0x00,  0x00,  0x00,  0x00,  0x00,  0x00,  0x00,  0x00,  0x00,
    0x00,  0x00,  0x00,  0x00,  0x00,  0x00,  0x00,  0x00,  0x00,  0x00,  0x00,  0x00,
    0x00,  0x00,  0x00,  0x00,  0x00,  0x00,  0x00,  0x00,  0x00,  0x00,  0x00,  0x00,
    0x00,  0x00,  0x00,  0x00,  0x00,  0x00,  0x00,  0x00,  0x00,  0x00,  0x00,  0x00,
    0x00,  0x00,  0x00,  0x00,  0x00,  0x00,  0x00,  0x00,  0x00,  0x00,  0x00,  0x00,
    0x00,  0x00,  0x00,  0x00,  0x00,  0x00,  0x00,  0x00,  0x00,  0x00,  0x00,  0x00,
    0x00,  0x00,  0x00,  0x00,  0x00,  0x00,  0x00,  0x00,  0x00,  0x00,  0x00,  0x00,
    0x00,  0x00,  0x00,  0x00,  0x00,  0x00,  0x00,  0x00,  0x00,  0x00,  0x00,  0x00,
    0x00,  0x00,  0x00,  0x00,  0x00,  0x00,  0x00,  0x00,  0x00,  0x00,  0x00,  0x00,
    0x00,  0x00,  0x00,  0x00,  0x00,  0x00,  0x00,  0x00,  0x00,  0x00,  0x00,  0x00,
    0x00,  0x00,  0x00,  0x00,  0x00,  0x00,  0x00,  0x00,  0x00,  0x00,  0x00,  0x00,
    0x00,  0x00,  0x00,  0x00,  0x00,  0x00,  0x00,  0x00,  0x00,  0x00,  0x00,  0x00,
    0x00,  0x00,  0x00,  0x00,  0x00,  0x00,  0x00,  0x00,  0x00};
